<svg width="114" height="43" viewBox="0 0 114 43" fill="none" xmlns="http://www.w3.org/2000/svg">
<path d="M9.622 32.408C8.398 32.408 7.344 32.238 6.46 31.898C5.59867 31.558 4.74867 31.0593 3.91 30.402L2.686 32H1.836V24.86H2.72C2.992 25.948 3.41133 26.9907 3.978 27.988C4.54467 28.9627 5.304 29.7673 6.256 30.402C7.23067 31.0367 8.44333 31.354 9.894 31.354C11.186 31.354 12.2513 31.116 13.09 30.64C13.9513 30.1413 14.586 29.518 14.994 28.77C15.4247 27.9993 15.64 27.206 15.64 26.39C15.64 25.6647 15.4813 25.03 15.164 24.486C14.8693 23.942 14.4273 23.4773 13.838 23.092C13.2487 22.684 12.5573 22.3327 11.764 22.038C10.9707 21.7433 10.0753 21.4827 9.078 21.256C7.446 20.8707 6.10867 20.3267 5.066 19.624C4.046 18.9213 3.28667 18.0713 2.788 17.074C2.28933 16.054 2.04 14.8753 2.04 13.538C2.04 11.8833 2.40267 10.5007 3.128 9.39C3.85333 8.25667 4.80533 7.40667 5.984 6.84C7.16267 6.25067 8.42067 5.956 9.758 5.956C10.846 5.956 11.7867 6.11467 12.58 6.432C13.396 6.72667 14.2233 7.20267 15.062 7.86L15.946 6.364H16.796V13.3L15.946 13.334C15.402 11.1807 14.5973 9.58266 13.532 8.54C12.4667 7.49733 11.1633 6.976 9.622 6.976C8.69267 6.976 7.82 7.16866 7.004 7.554C6.21067 7.93933 5.576 8.46067 5.1 9.118C4.624 9.75267 4.386 10.4893 4.386 11.328C4.386 12.0307 4.53333 12.62 4.828 13.096C5.12267 13.5493 5.542 13.9347 6.086 14.252C6.63 14.5693 7.26467 14.8413 7.99 15.068C8.738 15.2947 9.554 15.5327 10.438 15.782C12.07 16.2127 13.43 16.7793 14.518 17.482C15.606 18.162 16.422 19.046 16.966 20.134C17.5327 21.1993 17.816 22.5253 17.816 24.112C17.816 26.6733 17.102 28.702 15.674 30.198C14.2687 31.6713 12.2513 32.408 9.622 32.408ZM30.9134 32.408C29.8708 32.408 28.9528 32.1813 28.1594 31.728C27.3661 31.2747 26.7768 30.708 26.3914 30.028H25.5754L26.2554 24.86C26.2554 27.0587 26.6634 28.6793 27.4794 29.722C28.2954 30.742 29.3154 31.252 30.5394 31.252C31.1741 31.252 31.6841 31.0707 32.0694 30.708C32.4548 30.3453 32.7268 29.6653 32.8854 28.668C33.0668 27.6707 33.1574 26.2427 33.1574 24.384C33.1574 22.5027 33.0668 21.0633 32.8854 20.066C32.7041 19.0687 32.4208 18.3887 32.0354 18.026C31.6501 17.6407 31.1401 17.448 30.5054 17.448C29.2814 17.448 28.2614 17.958 27.4454 18.978C26.6521 19.998 26.2554 21.6187 26.2554 23.84L25.5754 18.672H26.3914C26.7768 17.992 27.3661 17.4253 28.1594 16.972C28.9754 16.5187 29.9048 16.292 30.9474 16.292C32.0808 16.292 33.1461 16.632 34.1434 17.312C35.1408 17.9693 35.9454 18.91 36.5574 20.134C37.1921 21.3353 37.5094 22.7407 37.5094 24.35C37.5094 25.9593 37.1921 27.376 36.5574 28.6C35.9454 29.8013 35.1294 30.742 34.1094 31.422C33.1121 32.0793 32.0468 32.408 30.9134 32.408ZM20.1694 42.676V41.826H29.6554V42.676H20.1694ZM22.5154 42.166V17.244H26.2554V42.166H22.5154ZM19.8294 17.55V16.7H26.2554V17.55H19.8294ZM44.7217 32.408C43.4977 32.408 42.5004 32.0567 41.7297 31.354C40.959 30.6513 40.5737 29.7333 40.5737 28.6C40.5737 27.512 40.9364 26.5827 41.6617 25.812C42.4097 25.0413 43.4637 24.452 44.8237 24.044C46.1837 23.6133 47.793 23.398 49.6517 23.398V19.25C49.6517 18.6607 49.425 18.196 48.9717 17.856C48.5184 17.516 47.895 17.346 47.1017 17.346C46.4217 17.346 45.8664 17.4593 45.4357 17.686C45.005 17.9127 44.7897 18.2073 44.7897 18.57C44.7897 18.7967 44.869 19.0007 45.0277 19.182C45.1864 19.3633 45.2657 19.6467 45.2657 20.032C45.2657 20.508 45.0844 20.9047 44.7217 21.222C44.3817 21.5167 43.9397 21.664 43.3957 21.664C42.8517 21.664 42.421 21.5053 42.1037 21.188C41.7864 20.848 41.6277 20.4287 41.6277 19.93C41.6277 19.25 41.8997 18.638 42.4437 18.094C42.9877 17.5273 43.7244 17.0853 44.6537 16.768C45.583 16.4507 46.6257 16.292 47.7817 16.292C49.4364 16.292 50.785 16.6207 51.8277 17.278C52.8704 17.9127 53.3917 18.7513 53.3917 19.794V30.13C53.3917 30.3567 53.4597 30.5493 53.5957 30.708C53.7544 30.844 53.9357 30.912 54.1397 30.912C54.3437 30.912 54.5817 30.81 54.8537 30.606C55.1257 30.3793 55.4657 30.0393 55.8737 29.586L56.3497 30.13C55.2844 31.6487 54.0944 32.408 52.7797 32.408C51.9864 32.408 51.329 32.1927 50.8077 31.762C50.309 31.3087 49.969 30.6853 49.7877 29.892H49.6517C49.221 30.6173 48.541 31.218 47.6117 31.694C46.6824 32.17 45.719 32.408 44.7217 32.408ZM46.7617 30.538C47.623 30.538 48.3144 30.2207 48.8357 29.586C49.3797 28.9287 49.6517 28.0787 49.6517 27.036V24.282C47.9517 24.282 46.671 24.5993 45.8097 25.234C44.9484 25.846 44.5177 26.7527 44.5177 27.954C44.5177 28.77 44.7104 29.4047 45.0957 29.858C45.5037 30.3113 46.059 30.538 46.7617 30.538ZM69.9109 31.49V19.998C69.9109 18.298 69.2309 17.448 67.8709 17.448C67.1229 17.448 66.4316 17.754 65.7969 18.366C65.1849 18.978 64.6862 19.8167 64.3009 20.882C63.9382 21.9247 63.7569 23.1147 63.7569 24.452L63.0769 19.522H63.8929C64.3689 18.5927 65.0149 17.822 65.8309 17.21C66.6696 16.598 67.7462 16.292 69.0609 16.292C70.3982 16.292 71.4976 16.6547 72.3589 17.38C73.2202 18.0827 73.6509 18.9553 73.6509 19.998V31.49H69.9109ZM57.3309 32V31.15H65.9669V32H57.3309ZM60.0169 31.49V17.244H63.7569V31.49H60.0169ZM67.3269 32V31.15H75.9629V32H67.3269ZM57.3309 17.55V16.7H63.7569V17.55H57.3309Z" fill="black"/>
<path d="M80.8148 31.49V6.364H85.3708V31.49H80.8148ZM77.0748 32V31.15H89.1108V32H77.0748ZM77.0748 7.214V6.364H89.1108V7.214H77.0748ZM105.768 31.49L99.5116 12.79H99.3756L99.1376 11.804L100.77 5.956H101.79L110.324 31.49H105.768ZM88.9716 32V31.15H97.1316V32H88.9716ZM95.6016 23.976V23.126H106.618V23.976H95.6016ZM101.688 32V31.15H113.35V32H101.688ZM91.8956 31.49L100.77 5.956H101.79L99.7156 11.804L93.0176 31.49H91.8956Z" fill="#E31010"/>
</svg>
